<svg xmlns="http://www.w3.org/2000/svg" width="49" height="47" viewBox="0 0 49 47" fill="none">
  <path fill-rule="evenodd" clip-rule="evenodd" d="M41.4676 23.0825H34.0514C30.3655 23.0825 27.377 26.0713 27.377 29.7569V33.3279C27.3751 34.1585 27.8386 34.9224 28.5747 35.3043L28.5765 35.3062C34.5784 38.3839 40.6875 38.4099 46.9133 35.2988H46.9152C47.6642 34.9205 48.137 34.1529 48.137 33.3149C48.1426 32.4861 48.1426 31.1586 48.1426 29.7569C48.1426 26.0711 45.1538 23.0825 41.4682 23.0825L41.4676 23.0825ZM37.7595 8.25C34.0755 8.25 31.0851 11.2406 31.0851 14.9244C31.0851 18.6082 34.0757 21.5988 37.7595 21.5988C41.4433 21.5988 44.4339 18.6082 44.4339 14.9244C44.4339 11.2406 41.4433 8.25 37.7595 8.25Z" fill="#DEDEDE"/>
  <path fill-rule="evenodd" clip-rule="evenodd" d="M23.1227 23.4375H11.4039C5.57973 23.4375 0.857431 28.1602 0.857431 33.984V39.6266C0.854501 40.9391 1.58693 42.1461 2.74998 42.7496L2.75291 42.7526C12.2367 47.6159 21.8899 47.6569 31.7277 42.7408H31.7306C32.9142 42.1432 33.6612 40.9303 33.6612 39.6061C33.67 38.2965 33.67 36.1988 33.67 33.984C33.67 28.1598 28.9474 23.4375 23.1235 23.4375L23.1227 23.4375ZM17.2633 0C11.442 0 6.71681 4.7256 6.71681 10.5465C6.71681 16.3674 11.4424 21.093 17.2633 21.093C23.0842 21.093 27.8098 16.3674 27.8098 10.5465C27.8098 4.7256 23.0842 0 17.2633 0Z" fill="#D0D0D0" fill-opacity="0.8"/>
</svg>