<svg xmlns="http://www.w3.org/2000/svg" width="7" height="8" viewBox="0 0 7 8" fill="none">
  <path d="M1.03352 0.235863C1.09078 0.187255 1.15879 0.14869 1.23367 0.122377C1.30855 0.0960639 1.38883 0.0825195 1.4699 0.0825195C1.55097 0.0825195 1.63124 0.0960639 1.70612 0.122377C1.781 0.14869 1.84902 0.187255 1.90627 0.235863L6.00375 3.7058C6.04946 3.74443 6.08573 3.79032 6.11047 3.84083C6.13521 3.89135 6.14795 3.9455 6.14795 4.00018C6.14795 4.05487 6.13521 4.10902 6.11047 4.15953C6.08573 4.21005 6.04946 4.25593 6.00375 4.29456L1.90627 7.7645C1.66466 7.96911 1.27513 7.96911 1.03352 7.7645C0.791913 7.5599 0.791913 7.23002 1.03352 7.02542L4.60341 3.9981L1.02859 0.970772C0.791914 0.770342 0.791913 0.436292 1.03352 0.235863Z" fill="#999999"/>
</svg>