<svg xmlns="http://www.w3.org/2000/svg" width="6" height="8" viewBox="0 0 6 8" fill="none">
  <path d="M0.181715 0.235863C0.238968 0.187255 0.306983 0.14869 0.381863 0.122377C0.456744 0.0960639 0.537019 0.0825195 0.61809 0.0825195C0.699161 0.0825195 0.779435 0.0960639 0.854316 0.122377C0.929196 0.14869 0.99721 0.187255 1.05446 0.235863L5.15194 3.7058C5.19765 3.74443 5.23392 3.79032 5.25866 3.84083C5.28341 3.89135 5.29614 3.9455 5.29614 4.00018C5.29614 4.05487 5.28341 4.10902 5.25866 4.15953C5.23392 4.21005 5.19765 4.25593 5.15194 4.29456L1.05446 7.7645C0.812855 7.96911 0.423323 7.96911 0.181715 7.7645C-0.0598936 7.5599 -0.0598936 7.23002 0.181715 7.02542L3.7516 3.9981L0.176785 0.970772C-0.0598927 0.770342 -0.0598936 0.436292 0.181715 0.235863Z" fill="white"/>
</svg>