<svg xmlns="http://www.w3.org/2000/svg" width="17" height="24" viewBox="0 0 17 24" fill="none">
  <path fill-rule="evenodd" clip-rule="evenodd" d="M11.5131 12.1192H5.45345C2.44184 12.1192 4.52725e-06 14.5612 4.52725e-06 17.5726V20.4903C-0.00151028 21.169 0.377216 21.7932 0.978615 22.1052L0.98013 22.1067C5.88404 24.6215 10.8756 24.6427 15.9626 22.1007H15.9641C16.5761 21.7916 16.9624 21.1645 16.9624 20.4797C16.9669 19.8026 16.9669 18.7179 16.9669 17.5726C16.9669 14.561 14.5249 12.1192 11.5135 12.1192L11.5131 12.1192ZM8.48325 0C5.47315 0 3.0298 2.44354 3.0298 5.45345C3.0298 8.46335 5.47335 10.9069 8.48325 10.9069C11.4932 10.9069 13.9367 8.46335 13.9367 5.45345C13.9367 2.44354 11.4932 0 8.48325 0Z" fill="white"/>
</svg>