<svg xmlns="http://www.w3.org/2000/svg" width="12" height="12" viewBox="0 0 12 12" fill="none">
  <path d="M0.657409 1.26063C0.458707 1.06373 0.458706 0.744485 0.657409 0.54758C0.856111 0.350676 1.17827 0.350676 1.37697 0.54758L11.4509 10.5303C11.6496 10.7272 11.6496 11.0465 11.4509 11.2434C11.2522 11.4403 10.93 11.4403 10.7313 11.2434L0.657409 1.26063Z" fill="#155DFF"/>
  <path d="M10.6228 0.756429C10.8215 0.559525 11.1437 0.559525 11.3424 0.756429C11.5411 0.953333 11.5411 1.27258 11.3424 1.46948L1.26849 11.4522C1.06979 11.6491 0.747631 11.6491 0.548929 11.4522C0.350227 11.2553 0.350227 10.9361 0.548929 10.7392L10.6228 0.756429Z" fill="#155DFF"/>
</svg>