<svg xmlns="http://www.w3.org/2000/svg" width="20" height="14" viewBox="0 0 20 14" fill="none">
  <path d="M19.9425 6.73017C19.9133 6.66433 19.2075 5.0985 17.6383 3.52933C15.5475 1.4385 12.9067 0.333496 10 0.333496C7.09333 0.333496 4.4525 1.4385 2.36166 3.52933C0.792493 5.0985 0.0833254 6.66683 0.0574921 6.73017C0.0195863 6.81543 0 6.90769 0 7.001C0 7.09431 0.0195863 7.18657 0.0574921 7.27183C0.0866587 7.33767 0.792493 8.90267 2.36166 10.4718C4.4525 12.5618 7.09333 13.6668 10 13.6668C12.9067 13.6668 15.5475 12.5618 17.6383 10.4718C19.2075 8.90267 19.9133 7.33767 19.9425 7.27183C19.9804 7.18657 20 7.09431 20 7.001C20 6.90769 19.9804 6.81543 19.9425 6.73017ZM10 12.3335C7.435 12.3335 5.19416 11.401 3.33916 9.56267C2.57803 8.80575 1.93048 7.94263 1.41666 7.00017C1.93034 6.05762 2.57791 5.19448 3.33916 4.43767C5.19416 2.59933 7.435 1.66683 10 1.66683C12.565 1.66683 14.8058 2.59933 16.6608 4.43767C17.4235 5.1943 18.0724 6.05743 18.5875 7.00017C17.9867 8.12184 15.3692 12.3335 10 12.3335ZM10 3.00016C9.20887 3.00016 8.43551 3.23476 7.77772 3.67429C7.11992 4.11381 6.60723 4.73853 6.30448 5.46943C6.00173 6.20034 5.92251 7.0046 6.07686 7.78053C6.2312 8.55645 6.61216 9.26919 7.17157 9.8286C7.73098 10.388 8.44371 10.769 9.21964 10.9233C9.99556 11.0777 10.7998 10.9984 11.5307 10.6957C12.2616 10.3929 12.8864 9.88025 13.3259 9.22245C13.7654 8.56465 14 7.79129 14 7.00017C13.9989 5.93964 13.5771 4.92286 12.8272 4.17296C12.0773 3.42305 11.0605 3.00127 10 3.00016ZM10 9.66684C9.47258 9.66684 8.95701 9.51044 8.51848 9.21742C8.07995 8.9244 7.73815 8.50793 7.53632 8.02066C7.33449 7.53339 7.28168 6.99721 7.38457 6.47993C7.48746 5.96264 7.74144 5.48749 8.11438 5.11455C8.48732 4.74161 8.96248 4.48763 9.47976 4.38474C9.99704 4.28184 10.5332 4.33465 11.0205 4.53649C11.5078 4.73832 11.9242 5.08011 12.2173 5.51865C12.5103 5.95718 12.6667 6.47275 12.6667 7.00017C12.6667 7.70741 12.3857 8.38569 11.8856 8.88579C11.3855 9.38588 10.7072 9.66684 10 9.66684Z" fill="black"/>
</svg>