<svg width="25" height="24" viewBox="0 0 25 24" fill="none" xmlns="http://www.w3.org/2000/svg">
<path d="M15.125 21V13C15.125 12.7348 15.0196 12.4804 14.8321 12.2929C14.6446 12.1054 14.3902 12 14.125 12H10.125C9.85978 12 9.60543 12.1054 9.41789 12.2929C9.23036 12.4804 9.125 12.7348 9.125 13V21" stroke="#777777" stroke-width="1.2" stroke-linecap="round" stroke-linejoin="round"/>
<path d="M3.125 9.99997C3.12493 9.70904 3.18833 9.42159 3.31079 9.15768C3.43324 8.89378 3.6118 8.65976 3.834 8.47197L10.834 2.47297C11.195 2.16788 11.6524 2.00049 12.125 2.00049C12.5976 2.00049 13.055 2.16788 13.416 2.47297L20.416 8.47197C20.6382 8.65976 20.8168 8.89378 20.9392 9.15768C21.0617 9.42159 21.1251 9.70904 21.125 9.99997V19C21.125 19.5304 20.9143 20.0391 20.5392 20.4142C20.1641 20.7893 19.6554 21 19.125 21H5.125C4.59457 21 4.08586 20.7893 3.71079 20.4142C3.33571 20.0391 3.125 19.5304 3.125 19V9.99997Z" stroke="#777777" stroke-width="1.2" stroke-linecap="round" stroke-linejoin="round"/>
</svg>
