<svg xmlns="http://www.w3.org/2000/svg" width="25" height="24" viewBox="0 0 25 24" fill="none">
  <path d="M4.94185 19.0999C1.04185 15.1999 1.04185 8.7999 4.94185 4.8999" stroke="#888888" stroke-width="1.244" stroke-linecap="round" stroke-linejoin="round"/>
  <path d="M7.8417 16.2002C5.5417 13.9002 5.5417 10.1002 7.8417 7.7002" stroke="#888888" stroke-width="1.244" stroke-linecap="round" stroke-linejoin="round"/>
  <path d="M12.0417 14C13.1463 14 14.0417 13.1046 14.0417 12C14.0417 10.8954 13.1463 10 12.0417 10C10.9372 10 10.0417 10.8954 10.0417 12C10.0417 13.1046 10.9372 14 12.0417 14Z" stroke="#888888" stroke-width="1.244" stroke-linecap="round" stroke-linejoin="round"/>
  <path d="M16.2417 7.7998C18.5417 10.0998 18.5417 13.8998 16.2417 16.2998" stroke="#888888" stroke-width="1.244" stroke-linecap="round" stroke-linejoin="round"/>
  <path d="M19.1418 4.8999C23.0418 8.7999 23.0418 15.0999 19.1418 18.9999" stroke="#888888" stroke-width="1.244" stroke-linecap="round" stroke-linejoin="round"/>
</svg>