<svg width="25" height="24" viewBox="0 0 25 24" fill="none" xmlns="http://www.w3.org/2000/svg">
<path d="M4.9416 19.0999C1.0416 15.1999 1.0416 8.7999 4.9416 4.8999" stroke="#155DFF" stroke-width="1.244" stroke-linecap="round" stroke-linejoin="round"/>
<path d="M7.84219 16.2002C5.54219 13.9002 5.54219 10.1002 7.84219 7.7002" stroke="#155DFF" stroke-width="1.244" stroke-linecap="round" stroke-linejoin="round"/>
<path d="M12.042 14C13.1466 14 14.042 13.1046 14.042 12C14.042 10.8954 13.1466 10 12.042 10C10.9374 10 10.042 10.8954 10.042 12C10.042 13.1046 10.9374 14 12.042 14Z" stroke="#155DFF" stroke-width="1.244" stroke-linecap="round" stroke-linejoin="round"/>
<path d="M16.2422 7.7998C18.5422 10.0998 18.5422 13.8998 16.2422 16.2998" stroke="#155DFF" stroke-width="1.244" stroke-linecap="round" stroke-linejoin="round"/>
<path d="M19.1416 4.8999C23.0416 8.7999 23.0416 15.0999 19.1416 18.9999" stroke="#155DFF" stroke-width="1.244" stroke-linecap="round" stroke-linejoin="round"/>
</svg>
