<svg width="25" height="24" viewBox="0 0 25 24" fill="none" xmlns="http://www.w3.org/2000/svg">
<path d="M12.2085 22C17.7313 22 22.2085 17.5228 22.2085 12C22.2085 6.47715 17.7313 2 12.2085 2C6.68565 2 2.2085 6.47715 2.2085 12C2.2085 17.5228 6.68565 22 12.2085 22Z" stroke="#155DFF" stroke-width="1.2" stroke-linecap="round" stroke-linejoin="round"/>
<path d="M12.2085 13C13.8654 13 15.2085 11.6569 15.2085 10C15.2085 8.34315 13.8654 7 12.2085 7C10.5516 7 9.2085 8.34315 9.2085 10C9.2085 11.6569 10.5516 13 12.2085 13Z" stroke="#155DFF" stroke-width="1.2" stroke-linecap="round" stroke-linejoin="round"/>
<path d="M7.2085 20.662V19C7.2085 18.4696 7.41921 17.9609 7.79428 17.5858C8.16936 17.2107 8.67806 17 9.2085 17H15.2085C15.7389 17 16.2476 17.2107 16.6227 17.5858C16.9978 17.9609 17.2085 18.4696 17.2085 19V20.662" stroke="#155DFF" stroke-width="1.2" stroke-linecap="round" stroke-linejoin="round"/>
</svg>
