<svg width="25" height="24" viewBox="0 0 25 24" fill="none" xmlns="http://www.w3.org/2000/svg">
<path d="M19.625 7V4C19.625 3.73478 19.5196 3.48043 19.3321 3.29289C19.1446 3.10536 18.8902 3 18.625 3H5.625C5.09457 3 4.58586 3.21071 4.21079 3.58579C3.83571 3.96086 3.625 4.46957 3.625 5C3.625 5.53043 3.83571 6.03914 4.21079 6.41421C4.58586 6.78929 5.09457 7 5.625 7H20.625C20.8902 7 21.1446 7.10536 21.3321 7.29289C21.5196 7.48043 21.625 7.73478 21.625 8V12M21.625 12H18.625C18.0946 12 17.5859 12.2107 17.2108 12.5858C16.8357 12.9609 16.625 13.4696 16.625 14C16.625 14.5304 16.8357 15.0391 17.2108 15.4142C17.5859 15.7893 18.0946 16 18.625 16H21.625C21.8902 16 22.1446 15.8946 22.3321 15.7071C22.5196 15.5196 22.625 15.2652 22.625 15V13C22.625 12.7348 22.5196 12.4804 22.3321 12.2929C22.1446 12.1054 21.8902 12 21.625 12Z" stroke="#155DFF" stroke-width="1.2" stroke-linecap="round" stroke-linejoin="round"/>
<path d="M3.625 5V19C3.625 19.5304 3.83571 20.0391 4.21079 20.4142C4.58586 20.7893 5.09457 21 5.625 21H20.625C20.8902 21 21.1446 20.8946 21.3321 20.7071C21.5196 20.5196 21.625 20.2652 21.625 20V16" stroke="#155DFF" stroke-width="1.2" stroke-linecap="round" stroke-linejoin="round"/>
</svg>
